<?xml version="1.0" encoding="UTF-8" standalone="no"?>
<!DOCTYPE svg PUBLIC "-//W3C//DTD SVG 1.0//EN"
 "http://www.w3.org/TR/2001/REC-SVG-20010904/DTD/svg10.dtd" [
 <!ATTLIST svg xmlns:xlink CDATA #FIXED "http://www.w3.org/1999/xlink">
]>
<!-- Generated by Graphviz version 2.12 (Fri Jan 10 10:43:25 UTC 2014)
     For user: (root) root -->
<!-- Title: trace Pages: 1 -->
<svg width="12.20in" height="18.89in"
 xmlns="http://www.w3.org/2000/svg" xmlns:xlink="http://www.w3.org/1999/xlink">
<g id="graph0" class="graph" transform="scale(1.33333 1.33333) rotate(0) translate(4 1356)">
<title>trace</title>
<polygon style="fill:white;stroke:white;" points="-4,4 -4,-1356 875,-1356 875,4 -4,4"/>
<g id="cluster2" class="cluster"><title>cluster_15169</title>
<polygon style="fill:none;stroke:#608686;" points="115,-976 115,-1132 250,-1132 250,-976 115,-976"/>
<text text-anchor="middle" x="183" y="-1118" style="font-family:Nimbus Roman No9 L;font-weight:regular;font-size:8.10pt;">15169</text>
<text text-anchor="middle" x="183" y="-1106" style="font-family:Nimbus Roman No9 L;font-weight:regular;font-size:8.10pt;">[GOOGLE &#45; Google Inc.,US]</text>
</g>
<g id="cluster3" class="cluster"><title>cluster_4134</title>
<polygon style="fill:none;stroke:#60baba;" points="486,-904 486,-1308 836,-1308 836,-904 486,-904"/>
<text text-anchor="middle" x="661" y="-1294" style="font-family:Nimbus Roman No9 L;font-weight:regular;font-size:8.10pt;">4134</text>
<text text-anchor="middle" x="661" y="-1282" style="font-family:Nimbus Roman No9 L;font-weight:regular;font-size:8.10pt;">[CHINANET&#45;BACKBONE No.31,Jin&#45;rong Street,CN]</text>
</g>
<g id="cluster4" class="cluster"><title>cluster_62567</title>
<polygon style="fill:none;stroke:#60ffff;" points="255,-504 255,-660 498,-660 498,-504 255,-504"/>
<text text-anchor="middle" x="377" y="-646" style="font-family:Nimbus Roman No9 L;font-weight:regular;font-size:8.10pt;">62567</text>
<text text-anchor="middle" x="377" y="-634" style="font-family:Nimbus Roman No9 L;font-weight:regular;font-size:8.10pt;">[DIGITALOCEAN&#45;ASN&#45;NY2 &#45; Digital Ocean, Inc.,US]</text>
</g>
<g id="cluster5" class="cluster"><title>cluster_1299</title>
<polygon style="fill:none;stroke:#868660;" points="258,-832 258,-1132 478,-1132 478,-832 258,-832"/>
<text text-anchor="middle" x="368" y="-1118" style="font-family:Nimbus Roman No9 L;font-weight:regular;font-size:8.10pt;">1299</text>
<text text-anchor="middle" x="368" y="-1106" style="font-family:Nimbus Roman No9 L;font-weight:regular;font-size:8.10pt;">[TELIANET TeliaSonera International Carrier,SE]</text>
</g>
<g id="cluster6" class="cluster"><title>cluster_6453</title>
<polygon style="fill:none;stroke:#86ba86;" points="202,-668 202,-824 478,-824 478,-668 202,-668"/>
<text text-anchor="middle" x="340" y="-810" style="font-family:Nimbus Roman No9 L;font-weight:regular;font-size:8.10pt;">6453</text>
<text text-anchor="middle" x="340" y="-798" style="font-family:Nimbus Roman No9 L;font-weight:regular;font-size:8.10pt;">[AS6453 &#45; TATA COMMUNICATIONS (AMERICA) INC,US]</text>
</g>
<g id="cluster7" class="cluster"><title>cluster_AS4134</title>
<polygon style="fill:none;stroke:#86ffba;" points="122,-1140 122,-1224 244,-1224 244,-1140 122,-1140"/>
<text text-anchor="middle" x="183" y="-1210" style="font-family:Nimbus Roman No9 L;font-weight:regular;font-size:8.10pt;">AS4134</text>
<text text-anchor="middle" x="183" y="-1198" style="font-family:Nimbus Roman No9 L;font-weight:regular;font-size:8.10pt;">[China Telecom]</text>
</g>
<!-- 72.14.235.79 -->
<g id="node2" class="node"><title>72.14.235.79</title>
<ellipse style="fill:#608686;stroke:black;" cx="179" cy="-1002" rx="49.8862" ry="18"/>
<text text-anchor="middle" x="179" y="-996" style="font-family:Nimbus Roman No9 L;font-weight:regular;font-size:11.34pt;">72.14.235.79</text>
</g>
<!-- unk2 -->
<g id="node34" class="node"><title>unk2</title>
<ellipse style="fill:none;stroke:black;" cx="176" cy="-930" rx="27.1362" ry="18"/>
<text text-anchor="middle" x="176" y="-924" style="font-family:Nimbus Roman No9 L;font-weight:regular;font-size:11.34pt;">unk2</text>
</g>
<!-- 72.14.235.79&#45;&gt;unk2 -->
<g id="edge35" class="edge"><title>72.14.235.79&#45;&gt;unk2</title>
<path style="fill:none;stroke:#a04040;" d="M178,-984C177,-976 177,-967 177,-958"/>
<polygon style="fill:#a04040;stroke:#a04040;" points="180.5,-958 177,-948 173.5,-958 180.5,-958"/>
</g>
<!-- 209.85.241.58 -->
<g id="node3" class="node"><title>209.85.241.58</title>
<ellipse style="fill:#608686;stroke:black;" cx="183" cy="-1074" rx="52.8873" ry="18"/>
<text text-anchor="middle" x="183" y="-1068" style="font-family:Nimbus Roman No9 L;font-weight:regular;font-size:11.34pt;">209.85.241.58</text>
</g>
<!-- 209.85.241.58&#45;&gt;72.14.235.79 -->
<g id="edge34" class="edge"><title>209.85.241.58&#45;&gt;72.14.235.79</title>
<path style="fill:none;stroke:#a04040;" d="M182,-1056C181,-1048 181,-1039 181,-1030"/>
<polygon style="fill:#a04040;stroke:#a04040;" points="184.478,-1029.6 180,-1020 177.512,-1030.3 184.478,-1029.6"/>
</g>
<!-- 202.97.34.182 -->
<g id="node5" class="node"><title>202.97.34.182</title>
<ellipse style="fill:#60baba;stroke:black;" cx="637" cy="-930" rx="52.8873" ry="18"/>
<text text-anchor="middle" x="637" y="-924" style="font-family:Nimbus Roman No9 L;font-weight:regular;font-size:11.34pt;">202.97.34.182</text>
</g>
<!-- unk1 -->
<g id="node33" class="node"><title>unk1</title>
<ellipse style="fill:none;stroke:black;" cx="591" cy="-858" rx="27.1362" ry="18"/>
<text text-anchor="middle" x="591" y="-852" style="font-family:Nimbus Roman No9 L;font-weight:regular;font-size:11.34pt;">unk1</text>
</g>
<!-- 202.97.34.182&#45;&gt;unk1 -->
<g id="edge30" class="edge"><title>202.97.34.182&#45;&gt;unk1</title>
<path style="fill:none;stroke:#a04040;" d="M626,-912C620,-904 613,-893 607,-884"/>
<polygon style="fill:#a04040;stroke:#a04040;" points="609.916,-882.042 602,-875 603.797,-885.441 609.916,-882.042"/>
</g>
<!-- 59.42.127.73 -->
<g id="node6" class="node"><title>59.42.127.73</title>
<ellipse style="fill:#60baba;stroke:black;" cx="655" cy="-1166" rx="49.8862" ry="18"/>
<text text-anchor="middle" x="655" y="-1160" style="font-family:Nimbus Roman No9 L;font-weight:regular;font-size:11.34pt;">59.42.127.73</text>
</g>
<!-- 183.56.33.121 -->
<g id="node9" class="node"><title>183.56.33.121</title>
<ellipse style="fill:#60baba;stroke:black;" cx="655" cy="-1074" rx="52.8873" ry="18"/>
<text text-anchor="middle" x="655" y="-1068" style="font-family:Nimbus Roman No9 L;font-weight:regular;font-size:11.34pt;">183.56.33.121</text>
</g>
<!-- 59.42.127.73&#45;&gt;183.56.33.121 -->
<g id="edge27" class="edge"><title>59.42.127.73&#45;&gt;183.56.33.121</title>
<path style="fill:none;stroke:#a04040;" d="M649,-1148C648,-1135 648,-1117 649,-1102"/>
<polygon style="fill:#a04040;stroke:#a04040;" points="652.488,-1102.3 650,-1092 645.522,-1101.6 652.488,-1102.3"/>
</g>
<!-- 59.42.127.73&#45;&gt;183.56.33.121 -->
<g id="edge10" class="edge"><title>59.42.127.73&#45;&gt;183.56.33.121</title>
<path style="fill:none;stroke:#a07070;" d="M661,-1148C662,-1135 662,-1117 661,-1102"/>
<polygon style="fill:#a07070;stroke:#a07070;" points="664.478,-1101.6 660,-1092 657.512,-1102.3 664.478,-1101.6"/>
</g>
<!-- 58.62.224.1 -->
<g id="node7" class="node"><title>58.62.224.1</title>
<ellipse style="fill:#60baba;stroke:black;" cx="658" cy="-1250" rx="45.8875" ry="18"/>
<text text-anchor="middle" x="658" y="-1244" style="font-family:Nimbus Roman No9 L;font-weight:regular;font-size:11.34pt;">58.62.224.1</text>
</g>
<!-- 58.62.224.1&#45;&gt;59.42.127.73 -->
<g id="edge9" class="edge"><title>58.62.224.1&#45;&gt;59.42.127.73</title>
<path style="fill:none;stroke:#a07070;" d="M652,-1232C650,-1221 650,-1207 650,-1194"/>
<polygon style="fill:#a07070;stroke:#a07070;" points="653.5,-1194 650,-1184 646.5,-1194 653.5,-1194"/>
</g>
<!-- 58.62.224.1&#45;&gt;59.42.127.73 -->
<g id="edge26" class="edge"><title>58.62.224.1&#45;&gt;59.42.127.73</title>
<path style="fill:none;stroke:#a04040;" d="M663,-1232C664,-1221 663,-1207 662,-1194"/>
<polygon style="fill:#a04040;stroke:#a04040;" points="665.478,-1193.6 661,-1184 658.512,-1194.3 665.478,-1193.6"/>
</g>
<!-- 202.97.58.254 -->
<g id="node8" class="node"><title>202.97.58.254</title>
<ellipse style="fill:#60baba;stroke:black;" cx="775" cy="-1250" rx="52.8873" ry="18"/>
<text text-anchor="middle" x="775" y="-1244" style="font-family:Nimbus Roman No9 L;font-weight:regular;font-size:11.34pt;">202.97.58.254</text>
</g>
<!-- 202.97.50.22 -->
<g id="node14" class="node"><title>202.97.50.22</title>
<ellipse style="fill:#60baba;stroke:black;" cx="773" cy="-1166" rx="49.8862" ry="18"/>
<text text-anchor="middle" x="773" y="-1160" style="font-family:Nimbus Roman No9 L;font-weight:regular;font-size:11.34pt;">202.97.50.22</text>
</g>
<!-- 202.97.58.254&#45;&gt;202.97.50.22 -->
<g id="edge15" class="edge"><title>202.97.58.254&#45;&gt;202.97.50.22</title>
<path style="fill:none;stroke:#a07070;" d="M775,-1232C774,-1221 774,-1207 774,-1194"/>
<polygon style="fill:#a07070;stroke:#a07070;" points="777.478,-1193.6 773,-1184 770.512,-1194.3 777.478,-1193.6"/>
</g>
<!-- 61.144.3.30 -->
<g id="node12" class="node"><title>61.144.3.30</title>
<ellipse style="fill:#60baba;stroke:black;" cx="760" cy="-1002" rx="45.8875" ry="18"/>
<text text-anchor="middle" x="760" y="-996" style="font-family:Nimbus Roman No9 L;font-weight:regular;font-size:11.34pt;">61.144.3.30</text>
</g>
<!-- 183.56.33.121&#45;&gt;61.144.3.30 -->
<g id="edge11" class="edge"><title>183.56.33.121&#45;&gt;61.144.3.30</title>
<path style="fill:none;stroke:#a07070;" d="M679,-1058C694,-1048 713,-1035 729,-1024"/>
<polygon style="fill:#a07070;stroke:#a07070;" points="731.1,-1026.8 737,-1018 726.9,-1021.2 731.1,-1026.8"/>
</g>
<!-- 183.56.30.1 -->
<g id="node13" class="node"><title>183.56.30.1</title>
<ellipse style="fill:#60baba;stroke:black;" cx="640" cy="-1002" rx="45.8875" ry="18"/>
<text text-anchor="middle" x="640" y="-996" style="font-family:Nimbus Roman No9 L;font-weight:regular;font-size:11.34pt;">183.56.30.1</text>
</g>
<!-- 183.56.33.121&#45;&gt;183.56.30.1 -->
<g id="edge28" class="edge"><title>183.56.33.121&#45;&gt;183.56.30.1</title>
<path style="fill:none;stroke:#a04040;" d="M651,-1056C650,-1048 648,-1039 646,-1030"/>
<polygon style="fill:#a04040;stroke:#a04040;" points="649.393,-1029.12 644,-1020 642.529,-1030.49 649.393,-1029.12"/>
</g>
<!-- 202.97.33.214 -->
<g id="node10" class="node"><title>202.97.33.214</title>
<ellipse style="fill:#60baba;stroke:black;" cx="767" cy="-930" rx="52.8873" ry="18"/>
<text text-anchor="middle" x="767" y="-924" style="font-family:Nimbus Roman No9 L;font-weight:regular;font-size:11.34pt;">202.97.33.214</text>
</g>
<!-- unk0 -->
<g id="node31" class="node"><title>unk0</title>
<ellipse style="fill:none;stroke:black;" cx="809" cy="-858" rx="27.1362" ry="18"/>
<text text-anchor="middle" x="809" y="-852" style="font-family:Nimbus Roman No9 L;font-weight:regular;font-size:11.34pt;">unk0</text>
</g>
<!-- 202.97.33.214&#45;&gt;unk0 -->
<g id="edge13" class="edge"><title>202.97.33.214&#45;&gt;unk0</title>
<path style="fill:none;stroke:#a07070;" d="M777,-912C782,-904 789,-893 794,-884"/>
<polygon style="fill:#a07070;stroke:#a07070;" points="797.203,-885.441 799,-875 791.084,-882.042 797.203,-885.441"/>
</g>
<!-- 202.97.61.26 -->
<g id="node11" class="node"><title>202.97.61.26</title>
<ellipse style="fill:#60baba;stroke:black;" cx="544" cy="-1250" rx="49.8862" ry="18"/>
<text text-anchor="middle" x="544" y="-1244" style="font-family:Nimbus Roman No9 L;font-weight:regular;font-size:11.34pt;">202.97.61.26</text>
</g>
<!-- 202.97.122.70 -->
<g id="node27" class="node"><title>202.97.122.70</title>
<ellipse style="fill:#86ffba;stroke:black;" cx="183" cy="-1166" rx="52.8873" ry="18"/>
<text text-anchor="middle" x="183" y="-1160" style="font-family:Nimbus Roman No9 L;font-weight:regular;font-size:11.34pt;">202.97.122.70</text>
</g>
<!-- 202.97.61.26&#45;&gt;202.97.122.70 -->
<g id="edge32" class="edge"><title>202.97.61.26&#45;&gt;202.97.122.70</title>
<path style="fill:none;stroke:#a04040;" d="M494,-1248C414,-1243 263,-1234 240,-1224 225,-1217 212,-1203 202,-1192"/>
<polygon style="fill:#a04040;stroke:#a04040;" points="204.219,-1189.22 195,-1184 198.951,-1193.83 204.219,-1189.22"/>
</g>
<!-- 61.144.3.30&#45;&gt;202.97.33.214 -->
<g id="edge12" class="edge"><title>61.144.3.30&#45;&gt;202.97.33.214</title>
<path style="fill:none;stroke:#a07070;" d="M762,-984C763,-976 763,-967 764,-958"/>
<polygon style="fill:#a07070;stroke:#a07070;" points="767.488,-958.299 765,-948 760.522,-957.602 767.488,-958.299"/>
</g>
<!-- 183.56.30.1&#45;&gt;202.97.34.182 -->
<g id="edge29" class="edge"><title>183.56.30.1&#45;&gt;202.97.34.182</title>
<path style="fill:none;stroke:#a04040;" d="M639,-984C638,-976 638,-967 638,-958"/>
<polygon style="fill:#a04040;stroke:#a04040;" points="641.5,-958 638,-948 634.5,-958 641.5,-958"/>
</g>
<!-- 213.248.102.225 -->
<g id="node21" class="node"><title>213.248.102.225</title>
<ellipse style="fill:#868660;stroke:black;" cx="410" cy="-1074" rx="59.8872" ry="18"/>
<text text-anchor="middle" x="410" y="-1068" style="font-family:Nimbus Roman No9 L;font-weight:regular;font-size:11.34pt;">213.248.102.225</text>
</g>
<!-- 202.97.50.22&#45;&gt;213.248.102.225 -->
<g id="edge16" class="edge"><title>202.97.50.22&#45;&gt;213.248.102.225</title>
<path style="fill:none;stroke:#a07070;" d="M745,-1151C736,-1147 725,-1142 714,-1140 664,-1128 531,-1149 482,-1132 464,-1125 446,-1111 433,-1099"/>
<polygon style="fill:#a07070;stroke:#a07070;" points="435.546,-1096.6 426,-1092 430.596,-1101.55 435.546,-1096.6"/>
</g>
<!-- 192.241.164.238 -->
<g id="node16" class="node"><title>192.241.164.238</title>
<ellipse style="fill:#60ffff;stroke:black;" cx="410" cy="-530" rx="59.8872" ry="18"/>
<text text-anchor="middle" x="410" y="-524" style="font-family:Nimbus Roman No9 L;font-weight:regular;font-size:11.34pt;">192.241.164.238</text>
</g>
<!-- 107.170.40.56 -->
<g id="node17" class="node"><title>107.170.40.56</title>
<polygon style="fill:green;stroke:black;" points="284,-584 284,-620 440,-620 440,-584 284,-584"/>
<text text-anchor="middle" x="332" y="-596" style="font-family:Nimbus Roman No9 L;font-weight:regular;font-size:11.34pt;">107.170.40.56</text>
<polyline style="fill:none;stroke:black;" points="381,-584 381,-620 "/>
<text text-anchor="middle" x="410" y="-596" style="font-family:Nimbus Roman No9 L;font-weight:regular;font-size:11.34pt;">http SA</text>
</g>
<!-- 107.170.40.56&#45;&gt;192.241.164.238 -->
<g id="edge23" class="edge"><title>107.170.40.56&#45;&gt;192.241.164.238</title>
<path style="fill:none;stroke:#a07070;" d="M410,-584C410,-576 410,-567 410,-558"/>
<polygon style="fill:#a07070;stroke:#a07070;" points="413.5,-558 410,-548 406.5,-558 413.5,-558"/>
</g>
<!-- 213.248.80.17 -->
<g id="node19" class="node"><title>213.248.80.17</title>
<ellipse style="fill:#868660;stroke:black;" cx="410" cy="-1002" rx="52.8873" ry="18"/>
<text text-anchor="middle" x="410" y="-996" style="font-family:Nimbus Roman No9 L;font-weight:regular;font-size:11.34pt;">213.248.80.17</text>
</g>
<!-- 213.155.135.116 -->
<g id="node20" class="node"><title>213.155.135.116</title>
<ellipse style="fill:#868660;stroke:black;" cx="410" cy="-930" rx="59.8872" ry="18"/>
<text text-anchor="middle" x="410" y="-924" style="font-family:Nimbus Roman No9 L;font-weight:regular;font-size:11.34pt;">213.155.135.116</text>
</g>
<!-- 213.248.80.17&#45;&gt;213.155.135.116 -->
<g id="edge18" class="edge"><title>213.248.80.17&#45;&gt;213.155.135.116</title>
<path style="fill:none;stroke:#a07070;" d="M410,-984C410,-976 410,-967 410,-958"/>
<polygon style="fill:#a07070;stroke:#a07070;" points="413.5,-958 410,-948 406.5,-958 413.5,-958"/>
</g>
<!-- 213.155.130.251 -->
<g id="node22" class="node"><title>213.155.130.251</title>
<ellipse style="fill:#868660;stroke:black;" cx="410" cy="-858" rx="59.8872" ry="18"/>
<text text-anchor="middle" x="410" y="-852" style="font-family:Nimbus Roman No9 L;font-weight:regular;font-size:11.34pt;">213.155.130.251</text>
</g>
<!-- 213.155.135.116&#45;&gt;213.155.130.251 -->
<g id="edge19" class="edge"><title>213.155.135.116&#45;&gt;213.155.130.251</title>
<path style="fill:none;stroke:#a07070;" d="M410,-912C410,-904 410,-895 410,-886"/>
<polygon style="fill:#a07070;stroke:#a07070;" points="413.5,-886 410,-876 406.5,-886 413.5,-886"/>
</g>
<!-- 213.248.102.225&#45;&gt;213.248.80.17 -->
<g id="edge17" class="edge"><title>213.248.102.225&#45;&gt;213.248.80.17</title>
<path style="fill:none;stroke:#a07070;" d="M410,-1056C410,-1048 410,-1039 410,-1030"/>
<polygon style="fill:#a07070;stroke:#a07070;" points="413.5,-1030 410,-1020 406.5,-1030 413.5,-1030"/>
</g>
<!-- 216.6.90.6 -->
<g id="node24" class="node"><title>216.6.90.6</title>
<ellipse style="fill:#86ba86;stroke:black;" cx="410" cy="-766" rx="42.8862" ry="18"/>
<text text-anchor="middle" x="410" y="-760" style="font-family:Nimbus Roman No9 L;font-weight:regular;font-size:11.34pt;">216.6.90.6</text>
</g>
<!-- 213.155.130.251&#45;&gt;216.6.90.6 -->
<g id="edge20" class="edge"><title>213.155.130.251&#45;&gt;216.6.90.6</title>
<path style="fill:none;stroke:#a07070;" d="M410,-840C410,-827 410,-809 410,-794"/>
<polygon style="fill:#a07070;stroke:#a07070;" points="413.5,-794 410,-784 406.5,-794 413.5,-794"/>
</g>
<!-- 63.243.128.122 -->
<g id="node25" class="node"><title>63.243.128.122</title>
<ellipse style="fill:#86ba86;stroke:black;" cx="410" cy="-694" rx="56.8862" ry="18"/>
<text text-anchor="middle" x="410" y="-688" style="font-family:Nimbus Roman No9 L;font-weight:regular;font-size:11.34pt;">63.243.128.122</text>
</g>
<!-- 216.6.90.6&#45;&gt;63.243.128.122 -->
<g id="edge21" class="edge"><title>216.6.90.6&#45;&gt;63.243.128.122</title>
<path style="fill:none;stroke:#a07070;" d="M410,-748C410,-740 410,-731 410,-722"/>
<polygon style="fill:#a07070;stroke:#a07070;" points="413.5,-722 410,-712 406.5,-722 413.5,-722"/>
</g>
<!-- 63.243.128.122&#45;&gt;107.170.40.56 -->
<g id="edge22" class="edge"><title>63.243.128.122&#45;&gt;107.170.40.56</title>
<path style="fill:none;stroke:#a07070;" d="M410,-676C410,-663 410,-645 410,-630"/>
<polygon style="fill:#a07070;stroke:#a07070;" points="413.5,-630 410,-620 406.5,-630 413.5,-630"/>
</g>
<!-- 202.97.122.70&#45;&gt;209.85.241.58 -->
<g id="edge33" class="edge"><title>202.97.122.70&#45;&gt;209.85.241.58</title>
<path style="fill:none;stroke:#a04040;" d="M183,-1148C183,-1135 183,-1117 183,-1102"/>
<polygon style="fill:#a04040;stroke:#a04040;" points="186.5,-1102 183,-1092 179.5,-1102 186.5,-1102"/>
</g>
<!-- 192.168.18.202 -->
<g id="node28" class="node"><title>192.168.18.202</title>
<polygon style="fill:green;stroke:black;" points="0,-8 0,-44 200,-44 200,-8 0,-8"/>
<text text-anchor="middle" x="52" y="-20" style="font-family:Nimbus Roman No9 L;font-weight:regular;font-size:11.34pt;">192.168.18.202</text>
<polyline style="fill:none;stroke:black;" points="104,-8 104,-44 "/>
<text text-anchor="middle" x="152" y="-20" style="font-family:Nimbus Roman No9 L;font-weight:regular;font-size:11.34pt;">ICMP redirect</text>
</g>
<!-- 192.168.18.202&#45;&gt;58.62.224.1 -->
<g id="edge25" class="edge"><title>192.168.18.202&#45;&gt;58.62.224.1</title>
<path style="fill:none;stroke:#a04040;" d="M99,-44C98,-71 97,-124 97,-170 97,-1074 97,-1074 97,-1074 97,-1141 68,-1179 118,-1224 129,-1232 590,-1229 603,-1232 607,-1233 611,-1233 615,-1234"/>
<polygon style="fill:#a04040;stroke:#a04040;" points="614.416,-1237.48 625,-1237 616.427,-1230.77 614.416,-1237.48"/>
</g>
<!-- 192.168.18.1 -->
<g id="node29" class="node"><title>192.168.18.1</title>
<ellipse style="fill:none;stroke:black;" cx="658" cy="-1334" rx="49.8862" ry="18"/>
<text text-anchor="middle" x="658" y="-1328" style="font-family:Nimbus Roman No9 L;font-weight:regular;font-size:11.34pt;">192.168.18.1</text>
</g>
<!-- 192.168.18.1&#45;&gt;58.62.224.1 -->
<g id="edge8" class="edge"><title>192.168.18.1&#45;&gt;58.62.224.1</title>
<path style="fill:none;stroke:#a07070;" d="M658,-1316C658,-1305 658,-1291 658,-1278"/>
<polygon style="fill:#a07070;stroke:#a07070;" points="661.5,-1278 658,-1268 654.5,-1278 661.5,-1278"/>
</g>
<!-- unk0&#45;&gt;202.97.58.254 -->
<g id="edge14" class="edge"><title>unk0&#45;&gt;202.97.58.254</title>
<path style="fill:none;stroke:#a07070;" d="M817,-875C830,-902 851,-954 851,-1002 851,-1074 851,-1074 851,-1074 851,-1141 871,-1169 832,-1224 829,-1227 826,-1230 823,-1232"/>
<polygon style="fill:#a07070;stroke:#a07070;" points="820.9,-1229.2 815,-1238 825.1,-1234.8 820.9,-1229.2"/>
</g>
<!-- unk1&#45;&gt;202.97.61.26 -->
<g id="edge31" class="edge"><title>unk1&#45;&gt;202.97.61.26</title>
<path style="fill:none;stroke:#a04040;" d="M582,-875C568,-901 545,-954 545,-1002 545,-1074 545,-1074 545,-1074 545,-1126 544,-1187 544,-1222"/>
<polygon style="fill:#a04040;stroke:#a04040;" points="540.5,-1222 544,-1232 547.5,-1222 540.5,-1222"/>
</g>
<!-- unk3 -->
<g id="node35" class="node"><title>unk3</title>
<ellipse style="fill:none;stroke:black;" cx="169" cy="-858" rx="27.1362" ry="18"/>
<text text-anchor="middle" x="169" y="-852" style="font-family:Nimbus Roman No9 L;font-weight:regular;font-size:11.34pt;">unk3</text>
</g>
<!-- unk2&#45;&gt;unk3 -->
<g id="edge36" class="edge"><title>unk2&#45;&gt;unk3</title>
<path style="fill:none;stroke:#a04040;" d="M174,-912C173,-904 173,-895 172,-886"/>
<polygon style="fill:#a04040;stroke:#a04040;" points="175.478,-885.602 171,-876 168.512,-886.299 175.478,-885.602"/>
</g>
<!-- unk4 -->
<g id="node36" class="node"><title>unk4</title>
<ellipse style="fill:none;stroke:black;" cx="163" cy="-766" rx="27.1362" ry="18"/>
<text text-anchor="middle" x="163" y="-760" style="font-family:Nimbus Roman No9 L;font-weight:regular;font-size:11.34pt;">unk4</text>
</g>
<!-- unk3&#45;&gt;unk4 -->
<g id="edge37" class="edge"><title>unk3&#45;&gt;unk4</title>
<path style="fill:none;stroke:#a04040;" d="M168,-840C167,-827 166,-809 165,-794"/>
<polygon style="fill:#a04040;stroke:#a04040;" points="168.478,-793.602 164,-784 161.512,-794.299 168.478,-793.602"/>
</g>
<!-- unk5 -->
<g id="node37" class="node"><title>unk5</title>
<ellipse style="fill:none;stroke:black;" cx="162" cy="-694" rx="27.1362" ry="18"/>
<text text-anchor="middle" x="162" y="-688" style="font-family:Nimbus Roman No9 L;font-weight:regular;font-size:11.34pt;">unk5</text>
</g>
<!-- unk4&#45;&gt;unk5 -->
<g id="edge38" class="edge"><title>unk4&#45;&gt;unk5</title>
<path style="fill:none;stroke:#a04040;" d="M163,-748C162,-740 162,-731 162,-722"/>
<polygon style="fill:#a04040;stroke:#a04040;" points="165.5,-722 162,-712 158.5,-722 165.5,-722"/>
</g>
<!-- unk6 -->
<g id="node38" class="node"><title>unk6</title>
<ellipse style="fill:none;stroke:black;" cx="160" cy="-602" rx="27.1362" ry="18"/>
<text text-anchor="middle" x="160" y="-596" style="font-family:Nimbus Roman No9 L;font-weight:regular;font-size:11.34pt;">unk6</text>
</g>
<!-- unk5&#45;&gt;unk6 -->
<g id="edge39" class="edge"><title>unk5&#45;&gt;unk6</title>
<path style="fill:none;stroke:#a04040;" d="M162,-676C161,-663 161,-645 160,-630"/>
<polygon style="fill:#a04040;stroke:#a04040;" points="163.5,-630 160,-620 156.5,-630 163.5,-630"/>
</g>
<!-- unk7 -->
<g id="node39" class="node"><title>unk7</title>
<ellipse style="fill:none;stroke:black;" cx="157" cy="-530" rx="27.1362" ry="18"/>
<text text-anchor="middle" x="157" y="-524" style="font-family:Nimbus Roman No9 L;font-weight:regular;font-size:11.34pt;">unk7</text>
</g>
<!-- unk6&#45;&gt;unk7 -->
<g id="edge40" class="edge"><title>unk6&#45;&gt;unk7</title>
<path style="fill:none;stroke:#a04040;" d="M159,-584C158,-576 158,-567 158,-558"/>
<polygon style="fill:#a04040;stroke:#a04040;" points="161.5,-558 158,-548 154.5,-558 161.5,-558"/>
</g>
<!-- unk8 -->
<g id="node40" class="node"><title>unk8</title>
<ellipse style="fill:none;stroke:black;" cx="156" cy="-458" rx="27.1362" ry="18"/>
<text text-anchor="middle" x="156" y="-452" style="font-family:Nimbus Roman No9 L;font-weight:regular;font-size:11.34pt;">unk8</text>
</g>
<!-- unk7&#45;&gt;unk8 -->
<g id="edge41" class="edge"><title>unk7&#45;&gt;unk8</title>
<path style="fill:none;stroke:#a04040;" d="M157,-512C156,-504 156,-495 156,-486"/>
<polygon style="fill:#a04040;stroke:#a04040;" points="159.5,-486 156,-476 152.5,-486 159.5,-486"/>
</g>
<!-- unk9 -->
<g id="node41" class="node"><title>unk9</title>
<ellipse style="fill:none;stroke:black;" cx="155" cy="-386" rx="27.1362" ry="18"/>
<text text-anchor="middle" x="155" y="-380" style="font-family:Nimbus Roman No9 L;font-weight:regular;font-size:11.34pt;">unk9</text>
</g>
<!-- unk8&#45;&gt;unk9 -->
<g id="edge42" class="edge"><title>unk8&#45;&gt;unk9</title>
<path style="fill:none;stroke:#a04040;" d="M156,-440C155,-432 155,-423 155,-414"/>
<polygon style="fill:#a04040;stroke:#a04040;" points="158.5,-414 155,-404 151.5,-414 158.5,-414"/>
</g>
<!-- unk10 -->
<g id="node42" class="node"><title>unk10</title>
<ellipse style="fill:none;stroke:black;" cx="155" cy="-314" rx="30.134" ry="18"/>
<text text-anchor="middle" x="155" y="-308" style="font-family:Nimbus Roman No9 L;font-weight:regular;font-size:11.34pt;">unk10</text>
</g>
<!-- unk9&#45;&gt;unk10 -->
<g id="edge43" class="edge"><title>unk9&#45;&gt;unk10</title>
<path style="fill:none;stroke:#a04040;" d="M155,-368C155,-360 155,-351 155,-342"/>
<polygon style="fill:#a04040;stroke:#a04040;" points="158.5,-342 155,-332 151.5,-342 158.5,-342"/>
</g>
<!-- unk11 -->
<g id="node43" class="node"><title>unk11</title>
<ellipse style="fill:none;stroke:black;" cx="155" cy="-242" rx="30.134" ry="18"/>
<text text-anchor="middle" x="155" y="-236" style="font-family:Nimbus Roman No9 L;font-weight:regular;font-size:11.34pt;">unk11</text>
</g>
<!-- unk10&#45;&gt;unk11 -->
<g id="edge44" class="edge"><title>unk10&#45;&gt;unk11</title>
<path style="fill:none;stroke:#a04040;" d="M155,-296C155,-288 155,-279 155,-270"/>
<polygon style="fill:#a04040;stroke:#a04040;" points="158.5,-270 155,-260 151.5,-270 158.5,-270"/>
</g>
<!-- unk12 -->
<g id="node44" class="node"><title>unk12</title>
<ellipse style="fill:none;stroke:black;" cx="155" cy="-170" rx="30.134" ry="18"/>
<text text-anchor="middle" x="155" y="-164" style="font-family:Nimbus Roman No9 L;font-weight:regular;font-size:11.34pt;">unk12</text>
</g>
<!-- unk11&#45;&gt;unk12 -->
<g id="edge45" class="edge"><title>unk11&#45;&gt;unk12</title>
<path style="fill:none;stroke:#a04040;" d="M155,-224C155,-216 155,-207 155,-198"/>
<polygon style="fill:#a04040;stroke:#a04040;" points="158.5,-198 155,-188 151.5,-198 158.5,-198"/>
</g>
<!-- unk13 -->
<g id="node45" class="node"><title>unk13</title>
<ellipse style="fill:none;stroke:black;" cx="155" cy="-98" rx="30.134" ry="18"/>
<text text-anchor="middle" x="155" y="-92" style="font-family:Nimbus Roman No9 L;font-weight:regular;font-size:11.34pt;">unk13</text>
</g>
<!-- unk12&#45;&gt;unk13 -->
<g id="edge46" class="edge"><title>unk12&#45;&gt;unk13</title>
<path style="fill:none;stroke:#a04040;" d="M155,-152C155,-144 155,-135 155,-126"/>
<polygon style="fill:#a04040;stroke:#a04040;" points="158.5,-126 155,-116 151.5,-126 158.5,-126"/>
</g>
<!-- unk13&#45;&gt;192.168.18.202 -->
<g id="edge47" class="edge"><title>unk13&#45;&gt;192.168.18.202</title>
<path style="fill:none;stroke:#a04040;" d="M154,-80C153,-72 153,-63 153,-54"/>
<polygon style="fill:#a04040;stroke:#a04040;" points="156.5,-54 153,-44 149.5,-54 156.5,-54"/>
</g>
</g>
</svg>
