<?xml version="1.0" encoding="UTF-8" standalone="no"?>
<!DOCTYPE svg PUBLIC "-//W3C//DTD SVG 1.0//EN"
 "http://www.w3.org/TR/2001/REC-SVG-20010904/DTD/svg10.dtd" [
 <!ATTLIST svg xmlns:xlink CDATA #FIXED "http://www.w3.org/1999/xlink">
]>
<!-- Generated by Graphviz version 2.12 (Fri Jan 10 10:43:25 UTC 2014)
     For user: (root) root -->
<!-- Title: trace Pages: 1 -->
<svg width="5.14in" height="8.39in"
 xmlns="http://www.w3.org/2000/svg" xmlns:xlink="http://www.w3.org/1999/xlink">
<g id="graph0" class="graph" transform="scale(1.33333 1.33333) rotate(0) translate(4 600)">
<title>trace</title>
<polygon style="fill:white;stroke:white;" points="-4,4 -4,-600 366,-600 366,4 -4,4"/>
<g id="cluster2" class="cluster"><title>cluster_4134</title>
<polygon style="fill:none;stroke:#608686;" points="117,-324 117,-552 354,-552 354,-324 117,-324"/>
<text text-anchor="middle" x="236" y="-538" style="font-family:Nimbus Roman No9 L;font-weight:regular;font-size:8.10pt;">4134</text>
<text text-anchor="middle" x="236" y="-526" style="font-family:Nimbus Roman No9 L;font-weight:regular;font-size:8.10pt;">[CHINANET&#45;BACKBONE No.31,Jin&#45;rong Street,CN]</text>
</g>
<g id="cluster3" class="cluster"><title>cluster_58543</title>
<polygon style="fill:none;stroke:#60baba;" points="8,-16 8,-316 296,-316 296,-16 8,-16"/>
<text text-anchor="middle" x="152" y="-302" style="font-family:Nimbus Roman No9 L;font-weight:regular;font-size:8.10pt;">58543</text>
<text text-anchor="middle" x="152" y="-290" style="font-family:Nimbus Roman No9 L;font-weight:regular;font-size:8.10pt;">[CHINATELECOM&#45;HUNAN&#45;HENGYANG&#45;MAN Hengyang,CN]</text>
</g>
<!-- 121.8.125.241 -->
<g id="node2" class="node"><title>121.8.125.241</title>
<ellipse style="fill:#608686;stroke:black;" cx="235" cy="-350" rx="52.8873" ry="18"/>
<text text-anchor="middle" x="235" y="-344" style="font-family:Nimbus Roman No9 L;font-weight:regular;font-size:11.34pt;">121.8.125.241</text>
</g>
<!-- 183.61.222.65 -->
<g id="node10" class="node"><title>183.61.222.65</title>
<ellipse style="fill:#60baba;stroke:black;" cx="235" cy="-258" rx="52.8873" ry="18"/>
<text text-anchor="middle" x="235" y="-252" style="font-family:Nimbus Roman No9 L;font-weight:regular;font-size:11.34pt;">183.61.222.65</text>
</g>
<!-- 121.8.125.241&#45;&gt;183.61.222.65 -->
<g id="edge7" class="edge"><title>121.8.125.241&#45;&gt;183.61.222.65</title>
<path style="fill:none;stroke:#a07070;" d="M235,-332C235,-319 235,-301 235,-286"/>
<polygon style="fill:#a07070;stroke:#a07070;" points="238.5,-286 235,-276 231.5,-286 238.5,-286"/>
</g>
<!-- 59.42.127.89 -->
<g id="node3" class="node"><title>59.42.127.89</title>
<ellipse style="fill:#608686;stroke:black;" cx="235" cy="-422" rx="49.8862" ry="18"/>
<text text-anchor="middle" x="235" y="-416" style="font-family:Nimbus Roman No9 L;font-weight:regular;font-size:11.34pt;">59.42.127.89</text>
</g>
<!-- 59.42.127.89&#45;&gt;121.8.125.241 -->
<g id="edge6" class="edge"><title>59.42.127.89&#45;&gt;121.8.125.241</title>
<path style="fill:none;stroke:#a07070;" d="M235,-404C235,-396 235,-387 235,-378"/>
<polygon style="fill:#a07070;stroke:#a07070;" points="238.5,-378 235,-368 231.5,-378 238.5,-378"/>
</g>
<!-- 58.62.224.1 -->
<g id="node4" class="node"><title>58.62.224.1</title>
<ellipse style="fill:#608686;stroke:black;" cx="235" cy="-494" rx="45.8875" ry="18"/>
<text text-anchor="middle" x="235" y="-488" style="font-family:Nimbus Roman No9 L;font-weight:regular;font-size:11.34pt;">58.62.224.1</text>
</g>
<!-- 58.62.224.1&#45;&gt;59.42.127.89 -->
<g id="edge5" class="edge"><title>58.62.224.1&#45;&gt;59.42.127.89</title>
<path style="fill:none;stroke:#a07070;" d="M235,-476C235,-468 235,-459 235,-450"/>
<polygon style="fill:#a07070;stroke:#a07070;" points="238.5,-450 235,-440 231.5,-450 238.5,-450"/>
</g>
<!-- 113.105.230.122 -->
<g id="node6" class="node"><title>113.105.230.122</title>
<ellipse style="fill:#60baba;stroke:black;" cx="104" cy="-258" rx="59.8872" ry="18"/>
<text text-anchor="middle" x="104" y="-252" style="font-family:Nimbus Roman No9 L;font-weight:regular;font-size:11.34pt;">113.105.230.122</text>
</g>
<!-- 183.60.218.2 -->
<g id="node8" class="node"><title>183.60.218.2</title>
<ellipse style="fill:#60baba;stroke:black;" cx="112" cy="-186" rx="49.8862" ry="18"/>
<text text-anchor="middle" x="112" y="-180" style="font-family:Nimbus Roman No9 L;font-weight:regular;font-size:11.34pt;">183.60.218.2</text>
</g>
<!-- 113.105.230.122&#45;&gt;183.60.218.2 -->
<g id="edge11" class="edge"><title>113.105.230.122&#45;&gt;183.60.218.2</title>
<path style="fill:none;stroke:#a07070;" d="M106,-240C107,-232 108,-223 109,-214"/>
<polygon style="fill:#a07070;stroke:#a07070;" points="112.488,-214.299 110,-204 105.522,-213.602 112.488,-214.299"/>
</g>
<!-- 183.60.218.10 -->
<g id="node7" class="node"><title>183.60.218.10</title>
<ellipse style="fill:#60baba;stroke:black;" cx="127" cy="-114" rx="52.8873" ry="18"/>
<text text-anchor="middle" x="127" y="-108" style="font-family:Nimbus Roman No9 L;font-weight:regular;font-size:11.34pt;">183.60.218.10</text>
</g>
<!-- 183.61.89.84 -->
<g id="node9" class="node"><title>183.61.89.84</title>
<polygon style="fill:green;stroke:black;" points="16,-24 16,-60 165,-60 165,-24 16,-24"/>
<text text-anchor="middle" x="61" y="-36" style="font-family:Nimbus Roman No9 L;font-weight:regular;font-size:11.34pt;">183.61.89.84</text>
<polyline style="fill:none;stroke:black;" points="106,-24 106,-60 "/>
<text text-anchor="middle" x="135" y="-36" style="font-family:Nimbus Roman No9 L;font-weight:regular;font-size:11.34pt;">http SA</text>
</g>
<!-- 183.60.218.10&#45;&gt;183.61.89.84 -->
<g id="edge13" class="edge"><title>183.60.218.10&#45;&gt;183.61.89.84</title>
<path style="fill:none;stroke:#a07070;" d="M129,-96C130,-88 131,-79 132,-70"/>
<polygon style="fill:#a07070;stroke:#a07070;" points="135.488,-70.2987 133,-60 128.522,-69.6021 135.488,-70.2987"/>
</g>
<!-- 183.60.218.2&#45;&gt;183.60.218.10 -->
<g id="edge12" class="edge"><title>183.60.218.2&#45;&gt;183.60.218.10</title>
<path style="fill:none;stroke:#a07070;" d="M116,-168C117,-160 119,-151 121,-142"/>
<polygon style="fill:#a07070;stroke:#a07070;" points="124.471,-142.492 123,-132 117.607,-141.119 124.471,-142.492"/>
</g>
<!-- unk0 -->
<g id="node13" class="node"><title>unk0</title>
<ellipse style="fill:none;stroke:black;" cx="331" cy="-186" rx="27.1362" ry="18"/>
<text text-anchor="middle" x="331" y="-180" style="font-family:Nimbus Roman No9 L;font-weight:regular;font-size:11.34pt;">unk0</text>
</g>
<!-- 183.61.222.65&#45;&gt;unk0 -->
<g id="edge8" class="edge"><title>183.61.222.65&#45;&gt;unk0</title>
<path style="fill:none;stroke:#a07070;" d="M257,-241C271,-231 290,-217 305,-206"/>
<polygon style="fill:#a07070;stroke:#a07070;" points="307.1,-208.8 313,-200 302.9,-203.2 307.1,-208.8"/>
</g>
<!-- 192.168.18.1 -->
<g id="node11" class="node"><title>192.168.18.1</title>
<ellipse style="fill:none;stroke:black;" cx="235" cy="-578" rx="49.8862" ry="18"/>
<text text-anchor="middle" x="235" y="-572" style="font-family:Nimbus Roman No9 L;font-weight:regular;font-size:11.34pt;">192.168.18.1</text>
</g>
<!-- 192.168.18.1&#45;&gt;58.62.224.1 -->
<g id="edge4" class="edge"><title>192.168.18.1&#45;&gt;58.62.224.1</title>
<path style="fill:none;stroke:#a07070;" d="M235,-560C235,-549 235,-535 235,-522"/>
<polygon style="fill:#a07070;stroke:#a07070;" points="238.5,-522 235,-512 231.5,-522 238.5,-522"/>
</g>
<!-- unk1 -->
<g id="node14" class="node"><title>unk1</title>
<ellipse style="fill:none;stroke:black;" cx="331" cy="-114" rx="27.1362" ry="18"/>
<text text-anchor="middle" x="331" y="-108" style="font-family:Nimbus Roman No9 L;font-weight:regular;font-size:11.34pt;">unk1</text>
</g>
<!-- unk0&#45;&gt;unk1 -->
<g id="edge9" class="edge"><title>unk0&#45;&gt;unk1</title>
<path style="fill:none;stroke:#a07070;" d="M331,-168C331,-160 331,-151 331,-142"/>
<polygon style="fill:#a07070;stroke:#a07070;" points="334.5,-142 331,-132 327.5,-142 334.5,-142"/>
</g>
<!-- unk1&#45;&gt;113.105.230.122 -->
<g id="edge10" class="edge"><title>unk1&#45;&gt;113.105.230.122</title>
<path style="fill:none;stroke:#a07070;" d="M311,-127C272,-151 187,-206 139,-236"/>
<polygon style="fill:#a07070;stroke:#a07070;" points="137.042,-233.084 130,-241 140.441,-239.203 137.042,-233.084"/>
</g>
</g>
</svg>
